Land_normalized_Motion_pl14
version=1
nRows=23
nColumns=43
inDegrees=yes
endheader
time		pelvis_tilt		pelvis_list		pelvis_rotation		pelvis_tx		pelvis_ty		pelvis_tz		hip_flexion_r		hip_adduction_r		hip_rotation_r		knee_angle_r		ankle_angle_r		subtalar_angle_r		mtp_angle_r		hip_flexion_l		hip_adduction_l		hip_rotation_l		knee_angle_l		ankle_angle_l		subtalar_angle_l		mtp_angle_l		lumbar_extension		lumbar_bending		lumbar_rotation		neck_flexion		neck_lateral_bending		neck_rotation		arm_flex_r		arm_add_r		arm_rot_r		elbow_flex_r		pro_sup_r		wrist_flex_r		wrist_dev_r		hand_finger_flex_r		arm_flex_l		arm_add_l		arm_rot_l		elbow_flex_l		pro_sup_l		wrist_flex_l		wrist_dev_l		hand_finger_flex_l		
1.317500		1.023869		7.893730		93.606768		0.024710		1.022459		0.641967		23.617211		-3.506600		-15.296779		-26.082480		-19.152970		-5.806824		-1.430854		28.106664		-7.008830		-5.814837		-31.051759		-26.679216		9.189086		7.824377		-35.637529		-2.256560		0.767616		-19.468579		0.311658		-3.677943		-63.597075		-12.519361		-34.348395		38.976959		117.628337		20.680308		1.881458		4.750353		-59.370059		-14.429136		-28.456816		44.277543		119.837469		-17.097020		-7.504201		-23.411805		
1.320328		1.107116		7.612986		93.716764		0.024364		1.009938		0.638170		24.997786		-3.560805		-14.417375		-28.170062		-19.085328		-5.830777		-2.002730		29.463753		-6.899104		-5.010857		-32.957607		-26.851041		8.774227		7.357456		-35.543756		-2.113298		0.849587		-18.872942		0.209201		-3.765950		-62.580922		-12.484898		-33.688842		38.935803		117.633937		20.237224		1.648521		5.086455		-58.447714		-14.300910		-28.445974		44.173021		119.546451		-17.709884		-7.713781		-22.893474		
1.323157		1.159923		7.838974		93.787901		0.024047		0.998363		0.634218		25.708385		-3.584068		-13.680565		-30.047539		-19.107523		-5.657972		-2.093222		30.211870		-6.812730		-4.326999		-34.805318		-27.073216		8.506915		7.229025		-36.039392		-1.990647		0.906412		-18.063638		0.088739		-3.877184		-61.475808		-12.452425		-33.264881		39.073072		117.693699		19.979265		1.553259		5.127555		-57.520999		-14.137364		-28.479619		44.201553		119.420683		-18.102814		-7.843634		-22.770613		
1.325985		1.208926		7.716502		93.887834		0.023579		0.985841		0.630327		26.911893		-3.644386		-12.891372		-32.102202		-19.082138		-5.424894		-2.166865		31.436767		-6.627260		-3.603002		-36.758301		-27.334682		7.960016		7.066586		-36.131027		-1.860573		0.944388		-17.392086		-0.014698		-4.017556		-60.460714		-12.461565		-32.722008		39.277148		117.663275		19.569872		1.213713		5.220903		-56.609154		-13.970206		-28.489050		44.244511		119.256844		-18.766778		-8.219847		-22.528900		
1.328813		1.295113		8.022065		93.970579		0.023351		0.974171		0.626304		27.571852		-3.570678		-12.094382		-34.005698		-19.010393		-5.103375		-1.976278		32.099052		-6.555408		-2.987315		-38.520337		-27.477842		7.877423		7.179171		-36.725091		-1.692879		1.036523		-16.501161		-0.155879		-4.101670		-59.287063		-12.443028		-32.374803		39.488780		117.647710		19.459255		1.089365		5.275413		-55.658401		-13.855005		-28.510866		44.469787		119.163638		-19.114529		-8.346631		-22.472951		
1.331641		1.329649		7.658070		94.002387		0.022941		0.960934		0.622269		29.115162		-3.609669		-11.195681		-36.158139		-18.633784		-4.412702		-0.559180		33.575533		-6.345248		-2.364441		-40.410898		-27.548523		7.705024		8.326829		-36.512609		-1.625513		1.113563		-16.006024		-0.267420		-4.190550		-58.207610		-12.586471		-31.692973		39.607683		117.433229		19.000821		0.561992		5.512951		-54.725128		-13.746671		-28.375568		44.537580		118.985686		-19.960722		-8.828708		-22.077075		
1.334470		1.386241		7.571759		94.046749		0.022592		0.948153		0.618200		30.334090		-3.592652		-10.395976		-38.242649		-18.727158		-4.143446		5.987308		34.673836		-6.199257		-1.876773		-42.100273		-27.883192		7.473743		14.301365		-36.631493		-1.529067		1.166691		-15.331397		-0.319375		-4.286941		-57.105255		-12.813137		-30.786560		39.818613		116.596396		17.956427		0.166121		6.674135		-53.819735		-13.671888		-28.016479		44.751457		118.504395		-21.393418		-9.208102		-20.427173		
1.337298		1.530845		7.981924		94.111072		0.022316		0.936454		0.614102		30.893450		-3.359648		-9.596836		-40.200645		-17.535640		-3.943705		8.024091		35.165593		-6.158596		-1.374531		-43.761800		-26.839970		7.517435		16.193696		-37.352894		-1.295321		1.267349		-14.328269		-0.485547		-4.361294		-55.791396		-12.917796		-30.492410		40.102951		116.409900		17.690337		0.018945		6.951379		-52.795650		-13.550075		-27.949532		45.121975		118.443350		-21.911997		-9.364233		-20.129770		
1.340126		1.648267		7.967310		94.069165		0.022188		0.923740		0.609783		32.015657		-3.238832		-8.930527		-42.474991		-15.358369		-2.639752		11.429824		36.109217		-6.173654		-0.998046		-45.500100		-25.134108		8.419280		19.605241		-37.525517		-1.180129		1.365548		-13.608845		-0.619334		-4.475478		-54.486247		-13.170380		-30.010090		40.228901		116.345596		17.303547		-0.691779		7.080251		-51.777609		-13.418100		-27.822177		45.313013		118.805763		-22.497356		-9.654957		-20.199052		
1.342955		1.789684		8.369897		93.996574		0.021993		0.911900		0.605462		32.577152		-2.900281		-8.056915		-44.618395		-12.556037		-2.140091		12.875403		36.522932		-6.136947		-0.419300		-47.340652		-21.865325		8.844865		21.132340		-38.161169		-1.028542		1.601397		-12.977209		-0.751138		-4.554348		-53.228030		-13.274863		-29.833857		40.687143		116.175809		17.093835		-1.041238		7.135853		-50.784327		-13.288203		-27.798341		45.847415		118.928624		-22.981816		-9.865535		-20.290870		
1.345783		1.935747		8.665962		93.929888		0.021749		0.899893		0.601319		33.258236		-2.568996		-7.353964		-46.887061		-9.091198		-1.837332		13.942505		37.068081		-6.131779		-0.013578		-49.252692		-18.200748		9.189818		22.192738		-38.730606		-0.867895		1.757096		-12.089011		-0.907436		-4.690107		-51.806335		-13.489530		-29.604986		40.999830		116.013619		16.780916		-1.479895		7.139147		-49.719390		-13.170226		-27.633298		46.288654		119.121221		-23.472359		-10.036288		-20.358141		
1.348611		2.102036		8.876875		93.811793		0.021714		0.887893		0.597280		34.004457		-2.153015		-6.601862		-49.195278		-5.187838		-1.302224		14.759371		37.662173		-6.188497		0.398174		-51.192435		-14.055849		9.749444		22.951564		-39.220709		-0.731330		2.009834		-11.218125		-1.125929		-4.827706		-50.299742		-13.738829		-29.203165		41.197583		115.809219		16.324635		-2.005367		7.173957		-48.537215		-13.116186		-27.401251		46.675603		119.377560		-24.104013		-10.157316		-20.354468		
1.351439		2.286872		9.063997		93.637505		0.021666		0.875967		0.593399		34.767391		-1.710275		-6.001398		-51.552732		-1.118753		-0.970097		14.677950		38.282704		-6.324663		0.655333		-53.242208		-9.624374		10.161048		22.747396		-39.712028		-0.608041		2.274516		-10.297048		-1.322575		-4.993258		-48.721251		-14.062309		-28.742869		41.392068		115.509531		15.707599		-2.577355		7.268830		-47.324950		-13.057129		-27.064580		47.069704		119.658971		-24.867562		-10.248410		-20.206274		
1.354268		2.445677		9.152092		93.503732		0.021688		0.863944		0.589849		35.686374		-1.284771		-5.524339		-54.038734		3.256119		-0.982575		10.555896		39.063563		-6.412020		0.890679		-55.453132		-4.781938		10.478328		18.162125		-40.143697		-0.521080		2.547618		-9.272887		-1.408804		-5.205579		-47.134798		-14.458604		-27.860142		41.542148		114.625769		14.480296		-3.265335		8.015359		-46.097464		-13.121686		-26.483559		47.553721		119.896636		-26.277447		-10.301241		-19.036600		
1.357096		2.630059		9.404595		93.340653		0.021569		0.852558		0.586520		36.395160		-0.855441		-5.201181		-56.411883		6.778082		-1.292075		8.942230		39.656520		-6.541637		1.044939		-57.662436		-0.536710		10.194653		16.418728		-40.782244		-0.390892		2.759200		-8.307197		-1.583211		-5.285756		-45.377481		-14.784312		-27.546634		41.881345		114.359635		13.855419		-3.513740		8.270978		-44.791750		-13.006428		-26.221789		48.085475		119.976732		-26.997062		-10.473281		-18.601144		
1.359924		2.865160		9.218436		93.167287		0.021639		0.840537		0.583650		37.711865		-0.397971		-4.987440		-58.898733		10.292830		-1.734818		4.072186		40.821229		-6.738810		1.202316		-59.962233		3.535152		10.391049		11.530186		-41.010688		-0.255057		3.131775		-7.183090		-1.755224		-5.481557		-43.536640		-15.143065		-26.979256		41.910603		114.221432		12.911349		-4.326471		8.768604		-43.315256		-13.143731		-25.430128		48.434335		119.923579		-28.436409		-10.680234		-17.537352		
1.362753		2.996149		9.457147		93.064334		0.021638		0.829807		0.581082		38.524276		-0.149341		-5.037349		-61.180498		12.610049		-2.386757		3.855177		41.522141		-6.880010		1.151873		-62.174948		6.392088		9.885235		11.376367		-41.788419		-0.157613		3.219577		-5.892415		-2.092273		-5.516743		-41.408584		-15.438573		-26.885758		42.182851		114.251810		12.575496		-4.370067		8.737419		-41.874006		-13.080592		-25.162599		49.042928		119.977834		-28.764081		-10.891589		-17.430854		
1.365581		3.266279		9.154342		92.962167		0.021681		0.817966		0.578846		40.155112		0.234699		-5.054281		-63.661652		14.657812		-3.053908		1.786351		42.944677		-7.110567		1.227094		-64.480744		9.354315		9.862797		9.449802		-41.958970		0.033380		3.503282		-4.751481		-2.177430		-5.594015		-39.452744		-15.792402		-26.455386		42.426049		114.224800		11.839629		-4.914267		9.005565		-40.342404		-13.138176		-24.561407		49.556570		119.916284		-29.914802		-11.311912		-16.675018		
1.368409		3.449338		9.095100		92.934977		0.021839		0.807029		0.576895		41.526240		0.460545		-5.227205		-66.022466		16.091691		-3.833109		1.561742		44.101676		-7.274526		1.212028		-66.645627		11.580214		9.547131		9.278874		-42.495172		0.180696		3.559359		-3.367268		-2.411849		-5.583827		-37.243968		-16.106531		-26.267819		42.750577		114.350646		11.384030		-5.102262		8.994741		-38.824961		-13.149835		-24.147497		50.259682		119.975503		-30.470981		-11.656188		-16.531167		
1.371237		3.701475		8.497257		92.949397		0.022077		0.795041		0.575228		43.658246		0.711128		-5.464703		-68.480038		17.084554		-4.935640		0.749161		46.002298		-7.389727		1.394617		-68.906839		13.598900		9.381621		8.377022		-42.425039		0.375934		3.645104		-2.117718		-2.538040		-5.551111		-35.066207		-16.441547		-25.904245		43.020389		114.547044		10.693496		-5.568359		9.228113		-37.268293		-13.252657		-23.522040		50.847803		119.835720		-31.512429		-12.120817		-15.945020		
1.374066		3.858042		8.078553		93.068030		0.022078		0.783702		0.573785		45.617381		0.763414		-5.821180		-70.897289		17.810178		-6.045518		0.186961		47.679920		-7.359522		1.506899		-71.016612		15.337212		9.016674		7.575776		-42.619528		0.562074		3.670648		-0.689365		-2.690441		-5.595871		-32.877652		-16.724963		-25.664749		43.424489		114.665203		10.166293		-5.905688		9.534170		-35.635947		-13.370499		-22.942839		51.610101		119.649699		-32.315659		-12.531188		-15.286849		
1.376894		4.004864		7.620983		93.207707		0.022149		0.772544		0.572430		47.626594		0.804838		-6.120038		-73.256798		18.360795		-7.169245		-0.169621		49.431700		-7.284930		1.712436		-73.084406		16.853261		8.643394		6.843901		-42.780667		0.743232		3.664740		0.717058		-2.865279		-5.652343		-30.601648		-17.004292		-25.404994		43.809634		114.795455		9.691033		-6.213039		9.829802		-33.939233		-13.551543		-22.304753		52.326898		119.507851		-32.993365		-12.907712		-14.650600		
1.379722		4.137793		7.126020		93.372235		0.022208		0.761548		0.571147		49.672528		0.825200		-6.388722		-75.559367		18.773481		-8.316126		-0.471112		51.253072		-7.160787		1.956833		-75.135105		18.183397		8.272455		6.011159		-42.911566		0.924349		3.635090		2.101944		-3.039747		-5.731525		-28.281619		-17.287921		-25.127848		44.199799		114.907474		9.222849		-6.505016		10.166868		-32.167192		-13.797933		-21.596622		53.004172		119.364328		-33.635807		-13.257876		-13.938042		
